<svg width="126" height="35" viewBox="0 0 126 35" fill="none" xmlns="http://www.w3.org/2000/svg">
<path d="M65.4988 31.8187V2.01483H72.0847V24.69H81.0983V31.8187H65.4988Z" fill="#FBFF26" stroke="#FBFF26" stroke-width="0.938168"/>
<path d="M46.5903 32.8887V17.1875H51.8241C55.6304 17.1875 57.6922 19.8837 58.7231 21.4697C59.1989 23.2935 59.865 26.4179 58.7231 29.0824C57.5812 31.7468 53.6479 32.7301 51.8241 32.8887H46.5903Z" fill="white" stroke="white" stroke-width="1.61205"/>
<path d="M86.1468 20.7874L91.9707 11.4691L90.0026 18.6586H91.7699L89.5608 23.5186H91.5691L85.8255 33.0377L87.914 25.6072H86.1468L88.1952 20.7874H86.1468Z" fill="white" stroke="white" stroke-width="0.56417"/>
<rect x="94.8658" y="16.2237" width="14.1653" height="1.87496" fill="white" stroke="white" stroke-width="1.06291"/>
<path d="M101.177 12.3284V15.9234H102.772V14.6881V12.3284H106.715V10.2912H101.931V9.57819L101.09 10.2912L100.51 9.57819V10.7665H99.7277L101.177 12.3284Z" fill="white" stroke="white" stroke-width="1.16159"/>
<path d="M96.0981 19.1616H107.799V20.0572H96.0981V19.1616Z" fill="white" stroke="white" stroke-width="1.06291"/>
<path d="M97.2793 21.1202H106.625L105.126 32.6824H98.924L97.2793 21.1202Z" fill="white" stroke="white" stroke-width="1.06291"/>
<path d="M125.414 23.4635H117.407V26.1325H125.414V29.0684C123.706 32.6982 119.793 33.349 117.407 33.0719C113.257 32.59 109.934 29.086 109.934 24.5311C109.934 17.7711 115.005 15.7234 117.407 15.7234C124.346 15.7234 126.037 20.1718 125.414 23.4635Z" fill="white" stroke="white" stroke-width="0.533797"/>
<path d="M117.734 23.7596H125.533V25.8868H117.734V23.7596Z" fill="black"/>
<g clip-path="url(#clip0_472_62)">
<path d="M22.717 9.12101V12.8348H16.7949V9.95371C14.0616 7.5313 10.1262 8.54064 8.40523 9.95371V24.7532C12.0496 28.8107 15.2131 26.4437 16.7949 24.7532V21.8387H13.2264V17.7508H22.717V21.8387V25.4344C22.717 29.6358 17.0227 33.3451 10.8348 33.0801C5.88454 32.8681 2.67294 27.8947 1.68591 25.4344C1.68591 25.4344 1.7745 11.1018 1.68591 9.12101C1.59734 7.14018 3.30311 2.88331 10.8348 1.70238C18.3665 0.521457 21.8945 6.15608 22.717 9.12101Z" fill="#05FF00" stroke="#05FF00" stroke-width="1.93608"/>
</g>
<path d="M26.7523 26.2633V17.1875H31.824H37.1627H42.5014V26.2633C42.4124 28.8437 40.6329 33.8442 34.2264 33.2036C27.82 32.563 26.5743 28.3098 26.7523 26.2633Z" fill="white" stroke="white" stroke-width="1.60161"/>
<path d="M33.7341 25.755V15.677H35.9737V25.755H33.7341Z" fill="black"/>
<defs>
<clipPath id="clip0_472_62">
<rect width="24.6353" height="34.7133" fill="white" transform="translate(0.140564)"/>
</clipPath>
</defs>
</svg>
